# xmcd
#
# Track frame offsets: 
#        182
#        20317
#        44797
#        58967
#        82920
#        96497
#        119895
#        159740
#
# Disc length: 2289 seconds
#
# Revision: 2
# Processed by: cddbd v1.5PL3 Copyright (c) Steve Scherf et al.
# Submitted via: ExactAudioCopy v0.95a5
#
DISCID=7208ef08
DTITLE=Albert Collins - Ice Pickin'
DYEAR=1978
DGENRE=Blues
TTITLE0=Honey Hush!
TTITLE1=When The Welfare Turns It's Back On You
TTITLE2=Ice Pick
TTITLE3=Cold Cold Feeling
TTITLE4=Too Tired
TTITLE5=Master Charge
TTITLE6=Conversation With Collins
TTITLE7=Avalanche
EXTD=
EXTT0=
EXTT1=
EXTT2=
EXTT3=
EXTT4=
EXTT5=
EXTT6=
EXTT7=
PLAYORDER=
